<svg width="100" height="100" viewBox="0 0 100 100" fill="none" xmlns="http://www.w3.org/2000/svg">
<rect width="100" height="100" fill="#FAFAFA"/>
<path d="M82.85 45.4C82.4187 44.6812 78.1623 42.8427 78.1623 42.8427C78.9026 42.4603 79.4086 42.3812 79.4086 40.8C79.4086 39.075 79.4 38.5 78.25 38.5H74.3486C74.3328 38.4655 74.3156 38.4296 74.2997 38.3936C71.7812 32.8937 71.4434 31.5037 67.6872 29.6321C62.6488 27.1265 53.203 27 49.5 27C45.797 27 36.3512 27.1265 31.3171 29.6321C27.5566 31.5008 27.65 32.4625 24.7046 38.3936C24.7046 38.4094 24.6744 38.4511 24.6471 38.5H20.7414C19.6 38.5 19.5914 39.075 19.5914 40.8C19.5914 42.3812 20.0974 42.4603 20.8377 42.8427C20.8377 42.8427 16.725 44.825 16.15 45.4C15.575 45.975 15 50 15 56.9C15 63.8 15.575 70.7 15.575 70.7H17.2914C17.2914 72.7125 17.5875 73 18.45 73H29.95C30.8125 73 31.1 72.7125 31.1 70.7H67.9C67.9 72.7125 68.1875 73 69.05 73H80.8375C81.4125 73 81.7 72.5687 81.7 70.7H83.425C83.425 70.7 84 63.6562 84 56.9C84 50.1437 83.2812 46.1187 82.85 45.4ZM30.7061 51.8601C28.088 52.1463 25.4566 52.2932 22.8229 52.3C19.8875 52.3 19.7869 52.4883 19.5799 50.6555C19.502 49.8166 19.5266 48.9714 19.6532 48.1384L19.7437 47.7H20.175C21.9 47.7 23.5201 47.7733 26.5791 48.6746C28.1349 49.1415 29.5983 49.8739 30.9045 50.8395C31.5312 51.2937 31.675 51.725 31.675 51.725L30.7061 51.8601ZM66.2354 62.2101L65.6 63.8H33.4C33.4 63.8 33.4561 63.7123 32.6812 62.1929C32.1062 61.0688 32.825 60.35 33.9621 59.9417C36.1643 59.1482 42.6 56.9 49.5 56.9C56.4 56.9 62.9636 58.8377 65.0969 59.9417C65.8875 60.35 66.8693 60.6375 66.2354 62.2187V62.2101ZM29.2916 42.5839C28.8273 42.6107 28.3619 42.6141 27.8972 42.594C28.2724 41.927 28.4809 41.1838 28.8474 40.4076C29.9974 37.9638 31.3128 35.1981 33.6544 34.0322C37.0383 32.3475 44.0519 31.5885 49.5 31.5885C54.9481 31.5885 61.9617 32.3417 65.3456 34.0322C67.6873 35.1981 68.9968 37.9653 70.1526 40.4076C70.522 41.191 70.7276 41.9399 71.1128 42.6113C70.8253 42.6271 70.4947 42.6113 69.7055 42.5839H29.2916ZM79.2764 50.6497C78.9688 52.4437 79.2562 52.3 76.1771 52.3C73.5434 52.2932 70.912 52.1463 68.2939 51.8601C67.8842 51.7868 67.7677 51.0954 68.0955 50.8395C69.3951 49.8632 70.8605 49.1297 72.4209 48.6746C75.4799 47.7733 77.2021 47.6526 78.9026 47.7129C79.0168 47.7173 79.1254 47.7638 79.2074 47.8434C79.2894 47.923 79.3391 48.0301 79.3468 48.1442C79.4281 48.981 79.4044 49.8246 79.2764 50.6555V50.6497Z" fill="#2E2E2E"/>
</svg>
